<svg width="15" height="17" viewBox="0 0 15 17" fill="none" xmlns="http://www.w3.org/2000/svg">
<path d="M4.70651 3.21173C4.6138 3.30424 4.54026 3.41413 4.49007 3.53511C4.43989 3.65608 4.41406 3.78576 4.41406 3.91673C4.41406 4.0477 4.43989 4.17738 4.49007 4.29836C4.54026 4.41933 4.6138 4.52922 4.70651 4.62173L8.58651 8.50173L4.70651 12.3817C4.51953 12.5687 4.41449 12.8223 4.41449 13.0867C4.41449 13.3512 4.51953 13.6048 4.70651 13.7917C4.89348 13.9787 5.14708 14.0838 5.41151 14.0838C5.67593 14.0838 5.92953 13.9787 6.11651 13.7917L10.7065 9.20173C10.7992 9.10922 10.8728 8.99933 10.9229 8.87836C10.9731 8.75738 10.999 8.6277 10.999 8.49673C10.999 8.36576 10.9731 8.23608 10.9229 8.11511C10.8728 7.99413 10.7992 7.88424 10.7065 7.79173L6.11651 3.20173C5.73651 2.82173 5.09651 2.82173 4.70651 3.21173Z" fill="#949494"/>
</svg>
