<svg width="25" height="25" viewBox="0 0 25 25"
    fill="none"
    xmlns="http://www.w3.org/2000/svg">
    <path
        d="M17.7902 9.80807C17.6977 9.71537 17.5878 9.64182 17.4668 9.59164C17.3459 9.54146 17.2162 9.51562 17.0852 9.51562C16.9543 9.51562 16.8246 9.54146 16.7036 9.59164C16.5826 9.64182 16.4727 9.71537 16.3802 9.80807L12.5002 13.6881L8.62022 9.80807C8.43324 9.62109 8.17965 9.51605 7.91522 9.51605C7.6508 9.51605 7.3972 9.62109 7.21022 9.80807C7.02324 9.99505 6.9182 10.2486 6.9182 10.5131C6.9182 10.7775 7.02324 11.0311 7.21022 11.2181L11.8002 15.8081C11.8927 15.9008 12.0026 15.9743 12.1236 16.0245C12.2446 16.0747 12.3743 16.1005 12.5052 16.1005C12.6362 16.1005 12.7659 16.0747 12.8868 16.0245C13.0078 15.9743 13.1177 15.9008 13.2102 15.8081L17.8002 11.2181C18.1802 10.8381 18.1802 10.1981 17.7902 9.80807Z"
        fill="#3E3E3E" />
</svg>