<svg width="115" height="37" viewBox="0 0 115 37" fill="none" xmlns="http://www.w3.org/2000/svg">
<path fill-rule="evenodd" clip-rule="evenodd" d="M-1.78511e-06 0C3.08308 6.89921 7.4206 13.2476 12.8672 18.6942C24.5882 30.4152 40.4854 37 57.0614 37C73.6374 37 89.5345 30.4152 101.256 18.6942C106.702 13.2476 111.04 6.89921 114.123 0H-1.78511e-06Z" fill="#D4D4D4"/>
<path d="M51.8227 28.5H62.3027C65.0627 28.5 66.1627 26.81 66.2927 24.75L66.8127 16.49C66.9527 14.33 65.2327 12.5 63.0627 12.5C62.4527 12.5 61.8927 12.15 61.6127 11.61L60.8927 10.16C60.4327 9.25 59.2327 8.5 58.2127 8.5H55.9227C54.8927 8.5 53.6927 9.25 53.2327 10.16L52.5127 11.61C52.2327 12.15 51.6727 12.5 51.0627 12.5C48.8927 12.5 47.1727 14.33 47.3127 16.49L47.8327 24.75C47.9527 26.81 49.0627 28.5 51.8227 28.5Z" stroke="#292D32" stroke-width="1.5" stroke-linecap="round" stroke-linejoin="round"/>
<path d="M55.5625 14.5H58.5625" stroke="#292D32" stroke-width="1.5" stroke-linecap="round" stroke-linejoin="round"/>
<path d="M57.0625 24.5C58.8525 24.5 60.3125 23.04 60.3125 21.25C60.3125 19.46 58.8525 18 57.0625 18C55.2725 18 53.8125 19.46 53.8125 21.25C53.8125 23.04 55.2725 24.5 57.0625 24.5Z" stroke="#292D32" stroke-width="1.5" stroke-linecap="round" stroke-linejoin="round"/>
</svg>
