<svg width="46" height="46" viewBox="0 0 46 46"
    fill="none"
    xmlns="http://www.w3.org/2000/svg">
    <path
        d="M14.0693 32.8332C19.7645 37.4952 28.1703 36.6566 32.8323 30.9614C37.4943 25.2661 36.6557 16.8603 30.9604 12.1983C25.2652 7.53635 16.8594 8.37495 12.1974 14.0702C7.53543 19.7654 8.37403 28.1713 14.0693 32.8332ZM18.8981 19.5035C19.1796 19.4754 19.4347 19.5637 19.6307 19.7242C19.8268 19.8846 19.9637 20.1173 19.9918 20.3988L20.3137 23.626L24.697 18.2712C25.0433 17.8482 25.6812 17.7846 26.1042 18.1309C26.5272 18.4771 26.5909 19.1151 26.2446 19.5381L21.8614 24.8928L25.0886 24.5709C25.6327 24.5166 26.128 24.922 26.1822 25.4661C26.2365 26.0102 25.8311 26.5055 25.287 26.5598L19.6581 27.1213C19.114 27.1756 18.6187 26.7702 18.5645 26.2261L18.0029 20.5972C17.9486 20.053 18.354 19.5578 18.8981 19.5035Z"
        fill="#5FDD97" />
</svg>