<svg width="80" height="80" viewBox="0 0 80 80" fill="none" xmlns="http://www.w3.org/2000/svg">
<path d="M72.5323 53.068L51.1989 14.668C48.3323 9.5013 44.3656 6.66797 39.9989 6.66797C35.6323 6.66797 31.6656 9.5013 28.799 14.668L7.46562 53.068C4.76562 57.968 4.46562 62.668 6.63228 66.368C8.79895 70.068 13.0656 72.1013 18.6656 72.1013H61.3323C66.9323 72.1013 71.199 70.068 73.3656 66.368C75.5323 62.668 75.2323 57.9346 72.5323 53.068ZM37.4989 30.0013C37.4989 28.6346 38.6323 27.5013 39.9989 27.5013C41.3656 27.5013 42.4989 28.6346 42.4989 30.0013V46.668C42.4989 48.0346 41.3656 49.168 39.9989 49.168C38.6323 49.168 37.4989 48.0346 37.4989 46.668V30.0013ZM42.3656 59.0346C42.1989 59.168 42.0323 59.3013 41.8656 59.4346C41.6656 59.568 41.4656 59.668 41.2656 59.7346C41.0656 59.8346 40.8656 59.9013 40.6323 59.9346C40.4323 59.968 40.1989 60.0013 39.9989 60.0013C39.799 60.0013 39.5656 59.968 39.3323 59.9346C39.1323 59.9013 38.9323 59.8346 38.7323 59.7346C38.5323 59.668 38.3323 59.568 38.1323 59.4346C37.9656 59.3013 37.799 59.168 37.6323 59.0346C37.0323 58.4013 36.6656 57.5346 36.6656 56.668C36.6656 55.8013 37.0323 54.9346 37.6323 54.3013C37.799 54.168 37.9656 54.0346 38.1323 53.9013C38.3323 53.768 38.5323 53.668 38.7323 53.6013C38.9323 53.5013 39.1323 53.4346 39.3323 53.4013C39.7656 53.3013 40.2323 53.3013 40.6323 53.4013C40.8656 53.4346 41.0656 53.5013 41.2656 53.6013C41.4656 53.668 41.6656 53.768 41.8656 53.9013C42.0323 54.0346 42.1989 54.168 42.3656 54.3013C42.9656 54.9346 43.3323 55.8013 43.3323 56.668C43.3323 57.5346 42.9656 58.4013 42.3656 59.0346Z" fill="#F46363"/>
</svg>
