<svg width="46" height="46" viewBox="0 0 46 46"
    fill="none"
    xmlns="http://www.w3.org/2000/svg">
    <path
        d="M31.7694 12.9223C37.1213 17.9747 37.3643 26.4188 32.3119 31.7707C27.2595 37.1226 18.8155 37.3656 13.4636 32.3132C8.11166 27.2608 7.8686 18.8167 12.921 13.4648C17.9734 8.11294 26.4175 7.86987 31.7694 12.9223ZM19.1665 19.4159C19.1747 19.6986 19.2948 19.9404 19.479 20.1143C19.6632 20.2882 19.9115 20.3942 20.1942 20.3861L23.4362 20.2927L18.6858 25.3247C18.3105 25.7222 18.329 26.363 18.7265 26.7383C19.124 27.1136 19.7648 27.0951 20.1401 26.6976L24.8905 21.6657L24.9838 24.9076C24.9995 25.4542 25.4649 25.8935 26.0115 25.8778C26.5581 25.8621 26.9975 25.3967 26.9817 24.8501L26.819 19.1956C26.8032 18.649 26.3378 18.2096 25.7912 18.2254L20.1367 18.3881C19.5901 18.4039 19.1508 18.8693 19.1665 19.4159Z"
        fill="#F67878" />
</svg>