<svg width="24" height="24" viewBox="0 0 24 24" fill="none" xmlns="http://www.w3.org/2000/svg">
<path d="M17.2883 9.30807C17.1958 9.21537 17.0859 9.14182 16.9649 9.09164C16.8439 9.04146 16.7142 9.01562 16.5833 9.01562C16.4523 9.01562 16.3226 9.04146 16.2016 9.09164C16.0807 9.14182 15.9708 9.21537 15.8783 9.30807L11.9983 13.1881L8.11827 9.30807C7.93129 9.12109 7.6777 9.01605 7.41327 9.01605C7.14884 9.01605 6.89525 9.12109 6.70827 9.30807C6.52129 9.49505 6.41625 9.74864 6.41625 10.0131C6.41625 10.2775 6.52129 10.5311 6.70827 10.7181L11.2983 15.3081C11.3908 15.4008 11.5007 15.4743 11.6216 15.5245C11.7426 15.5747 11.8723 15.6005 12.0033 15.6005C12.1342 15.6005 12.2639 15.5747 12.3849 15.5245C12.5059 15.4743 12.6158 15.4008 12.7083 15.3081L17.2983 10.7181C17.6783 10.3381 17.6783 9.69807 17.2883 9.30807Z" fill="#3E3E3E"/>
</svg>
