<svg width="16" height="17" viewBox="0 0 16 17"
    fill="none"
    xmlns="http://www.w3.org/2000/svg">
    <path
        d="M6.31328 10.6866C6.18661 10.6866 6.05995 10.6399 5.95995 10.5399C5.41328 9.99328 5.11328 9.26661 5.11328 8.49995C5.11328 6.90661 6.40661 5.61328 7.99995 5.61328C8.76661 5.61328 9.49328 5.91328 10.0399 6.45995C10.1333 6.55328 10.1866 6.67995 10.1866 6.81328C10.1866 6.94661 10.1333 7.07328 10.0399 7.16661L6.66661 10.5399C6.56661 10.6399 6.43995 10.6866 6.31328 10.6866ZM7.99995 6.61328C6.95995 6.61328 6.11328 7.45995 6.11328 8.49995C6.11328 8.83328 6.19995 9.15328 6.35995 9.43328L8.93328 6.85995C8.65328 6.69995 8.33328 6.61328 7.99995 6.61328Z"
        fill="#A5C6DF" />
    <path
        d="M3.73335 12.8399C3.62002 12.8399 3.50002 12.7999 3.40668 12.7199C2.69335 12.1132 2.05335 11.3666 1.50668 10.4999C0.800018 9.39991 0.800018 7.60657 1.50668 6.49991C3.13335 3.95324 5.50002 2.48657 8.00002 2.48657C9.46668 2.48657 10.9134 2.99324 12.18 3.94657C12.4 4.11324 12.4467 4.42657 12.28 4.64657C12.1134 4.86657 11.8 4.91324 11.58 4.74657C10.4867 3.91991 9.24668 3.48657 8.00002 3.48657C5.84668 3.48657 3.78668 4.77991 2.34668 7.03991C1.84668 7.81991 1.84668 9.1799 2.34668 9.9599C2.84668 10.7399 3.42002 11.4132 4.05335 11.9599C4.26002 12.1399 4.28668 12.4532 4.10668 12.6666C4.01335 12.7799 3.87335 12.8399 3.73335 12.8399Z"
        fill="#A5C6DF" />
    <path
        d="M7.99996 14.5134C7.11329 14.5134 6.24663 14.3334 5.41329 13.9801C5.15996 13.8734 5.03996 13.5801 5.14663 13.3267C5.25329 13.0734 5.54663 12.9534 5.79996 13.0601C6.50663 13.3601 7.24663 13.5134 7.99329 13.5134C10.1466 13.5134 12.2066 12.2201 13.6466 9.96008C14.1466 9.18008 14.1466 7.82008 13.6466 7.04008C13.44 6.71341 13.2133 6.40008 12.9733 6.10675C12.8 5.89341 12.8333 5.58008 13.0466 5.40008C13.26 5.22675 13.5733 5.25341 13.7533 5.47341C14.0133 5.79341 14.2666 6.14008 14.4933 6.50008C15.2 7.60008 15.2 9.39341 14.4933 10.5001C12.8666 13.0467 10.5 14.5134 7.99996 14.5134Z"
        fill="#A5C6DF" />
    <path
        d="M8.45997 11.3467C8.22664 11.3467 8.01331 11.18 7.96664 10.94C7.91331 10.6667 8.09331 10.4067 8.36664 10.36C9.09997 10.2267 9.71331 9.61332 9.84664 8.87999C9.89997 8.60665 10.16 8.43332 10.4333 8.47999C10.7066 8.53332 10.8866 8.79332 10.8333 9.06665C10.62 10.22 9.69997 11.1333 8.55331 11.3467C8.51997 11.34 8.49331 11.3467 8.45997 11.3467Z"
        fill="#A5C6DF" />
    <path
        d="M1.33329 15.6666C1.20663 15.6666 1.07996 15.6199 0.979961 15.5199C0.786628 15.3266 0.786628 15.0066 0.979961 14.8132L5.95996 9.83323C6.15329 9.6399 6.47329 9.6399 6.66663 9.83323C6.85996 10.0266 6.85996 10.3466 6.66663 10.5399L1.68663 15.5199C1.58663 15.6199 1.45996 15.6666 1.33329 15.6666Z"
        fill="#A5C6DF" />
    <path
        d="M9.68669 7.31329C9.56002 7.31329 9.43335 7.26663 9.33335 7.16663C9.14002 6.97329 9.14002 6.65329 9.33335 6.45996L14.3134 1.47996C14.5067 1.28663 14.8267 1.28663 15.02 1.47996C15.2134 1.67329 15.2134 1.99329 15.02 2.18663L10.04 7.16663C9.94002 7.26663 9.81335 7.31329 9.68669 7.31329Z"
        fill="#A5C6DF" />
</svg>