<svg width="80" height="80" viewBox="0 0 80 80"
    fill="none"
    xmlns="http://www.w3.org/2000/svg">
    <path
        d="M71.8669 35.8018L67.3336 30.5352C66.4669 29.5352 65.7669 27.6685 65.7669 26.3352V20.6685C65.7669 17.1352 62.8669 14.2352 59.3336 14.2352H53.6669C52.3669 14.2352 50.4669 13.5352 49.4669 12.6685L44.2003 8.13516C41.9003 6.16849 38.1336 6.16849 35.8003 8.13516L30.5669 12.7018C29.5669 13.5352 27.6669 14.2352 26.3669 14.2352H20.6003C17.0669 14.2352 14.1669 17.1352 14.1669 20.6685V26.3685C14.1669 27.6685 13.4669 29.5352 12.6336 30.5352L8.13359 35.8352C6.20026 38.1352 6.20026 41.8685 8.13359 44.1685L12.6336 49.4685C13.4669 50.4685 14.1669 52.3352 14.1669 53.6352V59.3352C14.1669 62.8685 17.0669 65.7685 20.6003 65.7685H26.3669C27.6669 65.7685 29.5669 66.4685 30.5669 67.3352L35.8336 71.8685C38.1336 73.8352 41.9003 73.8352 44.2336 71.8685L49.5003 67.3352C50.5003 66.4685 52.3669 65.7685 53.7003 65.7685H59.3669C62.9003 65.7685 65.8003 62.8685 65.8003 59.3352V53.6685C65.8003 52.3685 66.5003 50.4685 67.3669 49.4685L71.9003 44.2018C73.8336 41.9018 73.8336 38.1018 71.8669 35.8018ZM53.8669 33.7018L37.7669 49.8018C37.3003 50.2685 36.6669 50.5352 36.0003 50.5352C35.3336 50.5352 34.7003 50.2685 34.2336 49.8018L26.1669 41.7352C25.2003 40.7685 25.2003 39.1685 26.1669 38.2018C27.1336 37.2352 28.7336 37.2352 29.7003 38.2018L36.0003 44.5018L50.3336 30.1685C51.3003 29.2018 52.9003 29.2018 53.8669 30.1685C54.8336 31.1352 54.8336 32.7352 53.8669 33.7018Z"
        fill="#2ED477" />
</svg>