<svg width="34" height="34" viewBox="0 0 34 34"
    fill="none"
    xmlns="http://www.w3.org/2000/svg">
    <path
        d="M10.551 24.6248C14.8224 28.1213 21.1268 27.4923 24.6232 23.2209C28.1197 18.9495 27.4908 12.6451 23.2193 9.14861C18.9479 5.65214 12.6435 6.28109 9.14707 10.5525C5.65059 14.8239 6.27954 21.1283 10.551 24.6248ZM14.1726 14.6275C14.3837 14.6065 14.5751 14.6726 14.7221 14.793C14.8691 14.9133 14.9718 15.0879 14.9929 15.2989L15.2343 17.7194L18.5218 13.7033C18.7815 13.386 19.2599 13.3383 19.5772 13.598C19.8944 13.8577 19.9422 14.3362 19.6825 14.6534L16.395 18.6695L18.8155 18.428C19.2236 18.3873 19.595 18.6914 19.6357 19.0995C19.6764 19.5076 19.3724 19.879 18.9643 19.9197L14.7426 20.3409C14.3345 20.3816 13.9631 20.0775 13.9224 19.6694L13.5012 15.4478C13.4605 15.0397 13.7645 14.6682 14.1726 14.6275Z"
        fill="#FF9138" />
</svg>