<svg width="20" height="20" viewBox="0 0 20 20" fill="none" xmlns="http://www.w3.org/2000/svg">
<path d="M13.3346 5.83333C13.3346 6.71739 12.9834 7.56524 12.3583 8.19036C11.7332 8.81548 10.8854 9.16667 10.0013 9.16667C9.11725 9.16667 8.2694 8.81548 7.64428 8.19036C7.01916 7.56524 6.66797 6.71739 6.66797 5.83333C6.66797 4.94928 7.01916 4.10143 7.64428 3.47631C8.2694 2.85119 9.11725 2.5 10.0013 2.5C10.8854 2.5 11.7332 2.85119 12.3583 3.47631C12.9834 4.10143 13.3346 4.94928 13.3346 5.83333V5.83333Z" stroke="#696969" stroke-width="2" stroke-linecap="round" stroke-linejoin="round"/>
<path d="M10.0013 11.668C8.45421 11.668 6.97047 12.2826 5.87651 13.3765C4.78255 14.4705 4.16797 15.9542 4.16797 17.5013H15.8346C15.8346 15.9542 15.2201 14.4705 14.1261 13.3765C13.0321 12.2826 11.5484 11.668 10.0013 11.668V11.668Z" stroke="#696969" stroke-width="2" stroke-linecap="round" stroke-linejoin="round"/>
</svg>
