<svg width="67" height="67" viewBox="0 0 67 67" fill="none" xmlns="http://www.w3.org/2000/svg">
<path d="M33.5 0C37.9424 0 42.2028 1.76473 45.344 4.90596C48.4853 8.04719 50.25 12.3076 50.25 16.75C50.25 21.1924 48.4853 25.4528 45.344 28.594C42.2028 31.7353 37.9424 33.5 33.5 33.5C29.0576 33.5 24.7972 31.7353 21.656 28.594C18.5147 25.4528 16.75 21.1924 16.75 16.75C16.75 12.3076 18.5147 8.04719 21.656 4.90596C24.7972 1.76473 29.0576 0 33.5 0ZM33.5 67C33.5 67 67 67 67 58.625C67 48.575 50.6688 37.6875 33.5 37.6875C16.3313 37.6875 0 48.575 0 58.625C0 67 33.5 67 33.5 67Z" fill="#A9A9A9"/>
</svg>
