<svg width="55" height="10" viewBox="0 0 55 10"
    fill="none"
    xmlns="http://www.w3.org/2000/svg">
    <path
        d="M42.7248 3.99693L39.2287 3.69546L37.8624 0.476562L36.4961 3.70033L33 3.99693L35.6549 6.29684L34.8574 9.7151L37.8624 7.90143L40.8673 9.7151L40.0748 6.29684L42.7248 3.99693ZM37.8624 6.99216V2.47014L38.6939 4.43455L40.8236 4.61932L39.2093 6.01968L39.6955 8.10079L37.8624 6.99216Z"
        fill="#FF9138" />
    <path
        d="M49.9873 7.44468L49.7192 7.27434L49.4511 7.44468L47.5516 8.65147L48.0648 6.3356L48.1275 6.053L47.9136 5.85796L46.1773 4.27462L48.4376 4.07276L48.7425 4.04552L48.8569 3.76149L49.7192 1.61994L50.5815 3.76149L50.6958 4.04552L51.0008 4.07276L53.2611 4.27462L51.5248 5.85796L51.3109 6.053L51.3735 6.3356L51.8868 8.65147L49.9873 7.44468Z"
        stroke="#FF9138" />
    <path
        d="M26.5004 7.86671L29.4169 9.71961L28.6429 6.22742L31.2196 3.87776L27.8265 3.57474L26.5004 0.28125L25.1743 3.57474L21.7812 3.87776L24.3579 6.22742L23.584 9.71961L26.5004 7.86671Z"
        fill="#FF9138" />
    <path
        d="M15.6098 7.86671L18.5263 9.71961L17.7523 6.22742L20.329 3.87776L16.9359 3.57474L15.6098 0.28125L14.2837 3.57474L10.8906 3.87776L13.4673 6.22742L12.6934 9.71961L15.6098 7.86671Z"
        fill="#FF9138" />
    <path
        d="M4.71918 7.86671L7.63563 9.71961L6.86169 6.22742L9.43836 3.87776L6.04527 3.57474L4.71918 0.28125L3.39309 3.57474L0 3.87776L2.57667 6.22742L1.80273 9.71961L4.71918 7.86671Z"
        fill="#FF9138" />
</svg>