<svg width="24" height="25" viewBox="0 0 24 25" fill="none" xmlns="http://www.w3.org/2000/svg">
<path d="M12.6609 3.01814L12.6309 3.08814L9.73094 9.81814H6.88094C6.20094 9.81814 5.55094 9.95814 4.96094 10.2081L6.71094 6.02814L6.75094 5.92814L6.82094 5.76814C6.84094 5.70814 6.86094 5.64814 6.89094 5.59814C8.20094 2.56814 9.68094 1.87814 12.6609 3.01814Z" stroke="none" stroke-width="1.5" stroke-linecap="round" stroke-linejoin="round"/>
<path d="M18.0505 10.0195C17.6005 9.87953 17.1205 9.81953 16.6405 9.81953H9.73047L12.6305 3.08953L12.6605 3.01953C12.8105 3.06953 12.9505 3.13953 13.1005 3.19953L15.3105 4.12953C16.5405 4.63953 17.4005 5.16953 17.9205 5.80953C18.0205 5.92953 18.1005 6.03953 18.1705 6.16953C18.2605 6.30953 18.3305 6.44953 18.3705 6.59953C18.4105 6.68953 18.4405 6.77953 18.4605 6.85953C18.7305 7.69953 18.5705 8.72953 18.0505 10.0195Z" stroke="none" stroke-width="1.5" stroke-linecap="round" stroke-linejoin="round"/>
<path d="M21.5217 14.7003V16.6503C21.5217 16.8503 21.5117 17.0503 21.5017 17.2503C21.3117 20.7403 19.3617 22.5003 15.6617 22.5003H7.86172C7.62172 22.5003 7.38172 22.4803 7.15172 22.4503C3.97172 22.2403 2.27172 20.5403 2.06172 17.3603C2.03172 17.1303 2.01172 16.8903 2.01172 16.6503V14.7003C2.01172 12.6903 3.23172 10.9603 4.97172 10.2103C5.57172 9.96031 6.21172 9.82031 6.89172 9.82031H16.6517C17.1417 9.82031 17.6217 9.89031 18.0617 10.0203C20.0517 10.6303 21.5217 12.4903 21.5217 14.7003Z" stroke="none" stroke-width="1.5" stroke-linecap="round" stroke-linejoin="round"/>
<path d="M6.71 6.02734L4.96 10.2073C3.22 10.9573 2 12.6873 2 14.6973V11.7673C2 8.92734 4.02 6.55734 6.71 6.02734Z" stroke="none" stroke-width="1.5" stroke-linecap="round" stroke-linejoin="round"/>
<path d="M21.5186 11.7677V14.6977C21.5186 12.4977 20.0586 10.6277 18.0586 10.0277C18.5786 8.72766 18.7286 7.70766 18.4786 6.85766C18.4586 6.76766 18.4286 6.67766 18.3886 6.59766C20.2486 7.55766 21.5186 9.52766 21.5186 11.7677Z" stroke="none" stroke-width="1.5" stroke-linecap="round" stroke-linejoin="round"/>
</svg>
