<svg width="20" height="21" viewBox="0 0 20 21" fill="none" xmlns="http://www.w3.org/2000/svg">
<path opacity="0.4" d="M14.9596 6.9237L14.843 6.85703L13.6846 6.19036L11.293 4.80703C10.5596 4.38203 9.44297 4.38203 8.70964 4.80703L6.31797 6.19036L5.15964 6.86536L5.00964 6.9487C3.51797 7.9487 3.41797 8.13203 3.41797 9.74037V13.582C3.41797 15.1904 3.51797 15.3737 5.04297 16.3987L8.70964 18.5154C9.0763 18.732 9.53464 18.832 10.0013 18.832C10.4596 18.832 10.9263 18.732 11.293 18.5154L14.993 16.3737C16.4846 15.3737 16.5846 15.1904 16.5846 13.582V9.74037C16.5846 8.13203 16.4846 7.9487 14.9596 6.9237Z" fill="#2ED477"/>
<path d="M5.16016 6.86797L6.31849 6.19297L8.60182 4.8763L8.71016 4.80964C9.44349 4.38464 10.5602 4.38464 11.2935 4.80964L11.4018 4.8763L13.6852 6.19297L14.8435 6.85964V5.0763C14.8435 3.2013 13.8102 2.16797 11.9352 2.16797H8.06016C6.18516 2.16797 5.16016 3.2013 5.16016 5.0763V6.86797Z" fill="#2ED477"/>
<path d="M12.3658 11.6164L11.8491 12.2497C11.7658 12.3414 11.7075 12.5247 11.7158 12.6497L11.7658 13.4664C11.7991 13.9664 11.4408 14.2247 10.9741 14.0414L10.2158 13.7414C10.0991 13.6997 9.89914 13.6997 9.78247 13.7414L9.02414 14.0414C8.55747 14.2247 8.19914 13.9664 8.23247 13.4664L8.28247 12.6497C8.2908 12.5247 8.23247 12.3414 8.14914 12.2497L7.63247 11.6164C7.30747 11.2331 7.44914 10.8081 7.93247 10.6831L8.72414 10.4831C8.84914 10.4497 8.99914 10.3331 9.0658 10.2247L9.50747 9.54141C9.78247 9.11641 10.2158 9.11641 10.4908 9.54141L10.9325 10.2247C10.9991 10.3331 11.1491 10.4497 11.2741 10.4831L12.0658 10.6831C12.5491 10.8081 12.6908 11.2331 12.3658 11.6164Z" fill="#2ED477"/>
</svg>
