<svg width="20" height="20" viewBox="0 0 20 20" fill="none" xmlns="http://www.w3.org/2000/svg">
<path d="M8.73983 1.85781L4.58151 3.41614C3.62317 3.77448 2.83984 4.9078 2.83984 5.9328V12.1245C2.83984 13.1078 3.48985 14.3995 4.28152 14.9911L7.86484 17.6661C9.03984 18.5495 10.9732 18.5495 12.1482 17.6661L15.7315 14.9911C16.5232 14.3995 17.1732 13.1078 17.1732 12.1245V5.9328C17.1732 4.9078 16.3898 3.77448 15.4315 3.41614L11.2732 1.85781C10.5648 1.59948 9.4315 1.59948 8.73983 1.85781Z" stroke="#163B4E" stroke-width="1.5" stroke-linecap="round" stroke-linejoin="round"/>
<path d="M10.001 9.10132C9.96771 9.10132 9.92604 9.10132 9.89271 9.10132C9.10938 9.07632 8.48438 8.42631 8.48438 7.63464C8.48438 6.82631 9.14272 6.16797 9.95105 6.16797C10.7594 6.16797 11.4177 6.82631 11.4177 7.63464C11.4094 8.43464 10.7844 9.07632 10.001 9.10132Z" stroke="#163B4E" stroke-width="1.5" stroke-linecap="round" stroke-linejoin="round"/>
<path d="M8.34219 11.4328C7.54219 11.9661 7.54219 12.8411 8.34219 13.3745C9.25052 13.9828 10.7422 13.9828 11.6505 13.3745C12.4505 12.8411 12.4505 11.9661 11.6505 11.4328C10.7505 10.8245 9.25885 10.8245 8.34219 11.4328Z" stroke="#163B4E" stroke-width="1.5" stroke-linecap="round" stroke-linejoin="round"/>
</svg>
