<svg width="82" height="82" viewBox="0 0 82 82"
    fill="none"
    xmlns="http://www.w3.org/2000/svg">
    <path
        d="M64.0703 27.334V34.509C62.567 34.304 60.8587 34.2015 58.9453 34.1673V27.334C58.9453 16.5715 55.9045 9.39648 41.0078 9.39648C26.1111 9.39648 23.0703 16.5715 23.0703 27.334V34.1673C21.157 34.2015 19.4486 34.304 17.9453 34.509V27.334C17.9453 17.4256 20.337 4.27148 41.0078 4.27148C61.6786 4.27148 64.0703 17.4256 64.0703 27.334Z"
        fill="#1E4C67" />
    <path fill-rule="evenodd" clip-rule="evenodd"
        d="M58.944 34.1641C60.8573 34.1982 62.5657 34.3007 64.069 34.5057C72.7815 35.5649 75.1732 39.8357 75.1732 51.2474V56.2839H79.1082V79.6276H20.2301V75.0614C9.62597 74.405 6.83984 70.422 6.83984 58.0807V51.2474C6.83984 39.8357 9.23151 35.5649 17.944 34.5057C19.4473 34.3007 21.1557 34.1982 23.069 34.1641H58.944ZM30.3428 56.2839H24.3369C24.0725 55.7839 23.9232 55.224 23.9232 54.6641C23.9232 54.2199 24.0257 53.7757 24.1965 53.3657C24.3673 52.9557 24.6065 52.5799 24.914 52.2382C25.2557 51.9307 25.5973 51.6916 26.0415 51.5207C27.3057 50.9741 28.809 51.2816 29.7657 52.2382C30.0732 52.5799 30.3123 52.9557 30.4832 53.3657C30.654 53.7757 30.7565 54.2199 30.7565 54.6641C30.7565 55.224 30.6072 55.7839 30.3428 56.2839ZM43.9982 56.2839H38.0148C37.9594 56.1792 37.9088 56.072 37.8632 55.9624C37.6923 55.5524 37.5898 55.1082 37.5898 54.6641C37.5898 53.7416 37.9657 52.8874 38.5807 52.2382C39.8448 50.9741 42.134 50.9741 43.4323 52.2382C44.0473 52.8874 44.4232 53.7416 44.4232 54.6641C44.4232 55.1082 44.3207 55.5524 44.1498 55.9624C44.1042 56.072 44.0536 56.1792 43.9982 56.2839ZM57.6762 56.2839H51.6655C51.404 55.7932 51.2565 55.242 51.2565 54.6641C51.2565 53.7416 51.6323 52.8874 52.2473 52.2382C53.5457 50.9741 55.8348 50.9741 57.099 52.2382L57.0991 52.2383C57.2357 52.4091 57.3724 52.5799 57.509 52.7849C57.6457 52.9557 57.7482 53.1607 57.8165 53.3657C57.919 53.5707 57.9873 53.7757 58.0215 53.9807C58.0557 54.2199 58.0898 54.4591 58.0898 54.6641C58.0898 55.224 57.9405 55.7839 57.6762 56.2839Z"
        fill="#1E4C67" />
    <path
        d="M31.6007 71.4796C32.9287 70.3314 33.9731 69.3907 34.7339 68.6576C35.5086 67.9106 36.1519 67.1359 36.6637 66.3336C37.1755 65.5312 37.4314 64.7289 37.4314 63.9266C37.4314 63.0966 37.2309 62.4464 36.8297 61.9761C36.4424 61.5057 35.8268 61.2706 34.9829 61.2706C34.1668 61.2706 33.5304 61.5334 33.0739 62.0591C32.6313 62.5709 32.3961 63.2626 32.3684 64.1341H30.0859C30.1274 62.5571 30.5978 61.3536 31.4969 60.5236C32.4099 59.6797 33.565 59.2578 34.9622 59.2578C36.47 59.2578 37.6459 59.6728 38.4897 60.5028C39.3474 61.3328 39.7762 62.4395 39.7762 63.8228C39.7762 64.8188 39.5203 65.7802 39.0084 66.7071C38.5104 67.6201 37.9087 68.4431 37.2032 69.1763C36.5115 69.8956 35.6262 70.7326 34.5472 71.6871L33.6134 72.5171H40.1912V74.4883H30.1067V72.7661L31.6007 71.4796Z"
        fill="#FAFAFA" />
    <path
        d="M51.3785 60.2746V62.2043H45.2573V66.4581H50.0298V68.3878H45.2573V74.6958H42.8918V60.2746H51.3785Z"
        fill="#FAFAFA" />
    <path
        d="M62.5762 71.7493H56.538L55.5005 74.6958H53.0312L58.198 60.2538H60.937L66.1037 74.6958H63.6137L62.5762 71.7493ZM61.9122 69.8196L59.5675 63.1173L57.202 69.8196H61.9122Z"
        fill="#FAFAFA" />
</svg>