<svg width="20" height="20" viewBox="0 0 20 20"
    fill="none"
    xmlns="http://www.w3.org/2000/svg">
    <path
        d="M7.5013 18.3327H12.5013C16.668 18.3327 18.3346 16.666 18.3346 12.4993V7.49935C18.3346 3.33268 16.668 1.66602 12.5013 1.66602H7.5013C3.33464 1.66602 1.66797 3.33268 1.66797 7.49935V12.4993C1.66797 16.666 3.33464 18.3327 7.5013 18.3327Z"
        stroke="#1E4C67" stroke-width="1.5"
        stroke-linecap="round"
        stroke-linejoin="round" />
    <path
        d="M14.9154 7.54258C13.0987 7.35925 11.2654 7.26758 9.44036 7.26758C8.35703 7.26758 7.27369 7.32591 6.19869 7.43424L5.08203 7.54258"
        stroke="#1E4C67" stroke-width="1.5"
        stroke-linecap="round"
        stroke-linejoin="round" />
    <path
        d="M8.08984 6.99219L8.20651 6.27552C8.28984 5.75885 8.3565 5.36719 9.2815 5.36719H10.7148C11.6398 5.36719 11.7065 5.77552 11.7898 6.27552L11.9065 6.98386"
        stroke="#1E4C67" stroke-width="1.5"
        stroke-linecap="round"
        stroke-linejoin="round" />
    <path
        d="M13.7417 7.60938L13.3833 13.1094C13.325 13.9677 13.275 14.6344 11.75 14.6344H8.24167C6.71667 14.6344 6.66666 13.9677 6.60833 13.1094L6.25 7.60938"
        stroke="#1E4C67" stroke-width="1.5"
        stroke-linecap="round"
        stroke-linejoin="round" />
</svg>