<svg width="20" height="21" viewBox="0 0 20 21"
    fill="none"
    xmlns="http://www.w3.org/2000/svg">
    <path
        d="M10 12.9001C9.24167 12.9001 8.625 12.2835 8.625 11.5251V9.46682C8.625 8.70848 9.24167 8.0918 10 8.0918C10.7583 8.0918 11.375 8.70848 11.375 9.46682V11.5251C11.375 12.2835 10.7583 12.9001 10 12.9001Z"
        stroke="#1E4C67" stroke-width="1.5"
        stroke-linecap="round" />
    <path
        d="M14.1487 11.7247C13.982 13.8747 12.182 15.5581 9.9987 15.5581C7.6987 15.5581 5.83203 13.6914 5.83203 11.3914V9.60807C5.83203 7.30807 7.6987 5.44141 9.9987 5.44141C12.157 5.44141 13.932 7.08306 14.1404 9.18306"
        stroke="#1E4C67" stroke-width="1.5"
        stroke-linecap="round" />
    <path
        d="M12.5 2.16602H14.1667C16.6667 2.16602 18.3333 3.83268 18.3333 6.33268V7.99935"
        stroke="#1E4C67" stroke-width="1.5"
        stroke-miterlimit="10"
        stroke-linecap="round"
        stroke-linejoin="round" />
    <path
        d="M1.66797 7.99935V6.33268C1.66797 3.83268 3.33464 2.16602 5.83464 2.16602H7.5013"
        stroke="#1E4C67" stroke-width="1.5"
        stroke-miterlimit="10"
        stroke-linecap="round"
        stroke-linejoin="round" />
    <path
        d="M12.5 18.8333H14.1667C16.6667 18.8333 18.3333 17.1667 18.3333 14.6667V13"
        stroke="#1E4C67" stroke-width="1.5"
        stroke-miterlimit="10"
        stroke-linecap="round"
        stroke-linejoin="round" />
    <path
        d="M1.66797 13V14.6667C1.66797 17.1667 3.33464 18.8333 5.83464 18.8333H7.5013"
        stroke="#1E4C67" stroke-width="1.5"
        stroke-miterlimit="10"
        stroke-linecap="round"
        stroke-linejoin="round" />
</svg>