<svg width="20" height="20" viewBox="0 0 20 20"
    fill="none"
    xmlns="http://www.w3.org/2000/svg">
    <path
        d="M17.4242 9.26756C17.4242 13.3426 14.4659 17.1592 10.4242 18.2759C10.1492 18.3509 9.84921 18.3509 9.57421 18.2759C5.53255 17.1592 2.57422 13.3426 2.57422 9.26756V5.60922C2.57422 4.92588 3.0909 4.15088 3.73256 3.89255L8.37421 1.99258C9.41588 1.56758 10.5909 1.56758 11.6325 1.99258L16.2742 3.89255C16.9076 4.15088 17.4326 4.92588 17.4326 5.60922L17.4242 9.26756Z"
        stroke="#1E4C67" stroke-width="1.5"
        stroke-linecap="round"
        stroke-linejoin="round" />
    <path
        d="M9.9987 10.4173C10.9192 10.4173 11.6654 9.67113 11.6654 8.75065C11.6654 7.83018 10.9192 7.08398 9.9987 7.08398C9.07822 7.08398 8.33203 7.83018 8.33203 8.75065C8.33203 9.67113 9.07822 10.4173 9.9987 10.4173Z"
        stroke="#1E4C67" stroke-width="1.5"
        stroke-miterlimit="10"
        stroke-linecap="round"
        stroke-linejoin="round" />
    <path d="M10 10.418V12.918" stroke="#1E4C67"
        stroke-width="1.5" stroke-miterlimit="10"
        stroke-linecap="round"
        stroke-linejoin="round" />
</svg>