<svg width="20" height="20" viewBox="0 0 20 20"
    fill="none"
    xmlns="http://www.w3.org/2000/svg">
    <path
        d="M5 8.33268V6.66602C5 3.90768 5.83333 1.66602 10 1.66602C14.1667 1.66602 15 3.90768 15 6.66602V8.33268"
        stroke="#1E4C67" stroke-width="1.5"
        stroke-linecap="round"
        stroke-linejoin="round" />
    <path
        d="M14.168 18.334H5.83464C2.5013 18.334 1.66797 17.5007 1.66797 14.1673V12.5007C1.66797 9.16732 2.5013 8.33398 5.83464 8.33398H14.168C17.5013 8.33398 18.3346 9.16732 18.3346 12.5007V14.1673C18.3346 17.5007 17.5013 18.334 14.168 18.334Z"
        stroke="#1E4C67" stroke-width="1.5"
        stroke-linecap="round"
        stroke-linejoin="round" />
    <path
        d="M7.615 17.2243C7.935 16.9476 8.18667 16.721 8.37 16.5443C8.55667 16.3643 8.71167 16.1776 8.835 15.9843C8.95833 15.791 9.02 15.5976 9.02 15.4043C9.02 15.2043 8.97167 15.0476 8.875 14.9343C8.78167 14.821 8.63333 14.7643 8.43 14.7643C8.23333 14.7643 8.08 14.8276 7.97 14.9543C7.86333 15.0776 7.80667 15.2443 7.8 15.4543H7.25C7.26 15.0743 7.37333 14.7843 7.59 14.5843C7.81 14.381 8.08833 14.2793 8.425 14.2793C8.78833 14.2793 9.07167 14.3793 9.275 14.5793C9.48167 14.7793 9.585 15.046 9.585 15.3793C9.585 15.6193 9.52333 15.851 9.4 16.0743C9.28 16.2943 9.135 16.4926 8.965 16.6693C8.79833 16.8426 8.585 17.0443 8.325 17.2743L8.1 17.4743H9.685V17.9493H7.255V17.5343L7.615 17.2243Z"
        fill="#1E4C67" />
    <path
        d="M12.3807 14.5243V14.9893H10.9057V16.0143H12.0557V16.4793H10.9057V17.9993H10.3357V14.5243H12.3807Z"
        fill="#1E4C67" />
    <path
        d="M15.079 17.2893H13.624L13.374 17.9993H12.779L14.024 14.5193H14.684L15.929 17.9993H15.329L15.079 17.2893ZM14.919 16.8243L14.354 15.2093L13.784 16.8243H14.919Z"
        fill="#1E4C67" />
</svg>